<?xml version="1.0" encoding="UTF-8"?>
<svg width="647" height="751" version="1.1" viewBox="0 0 647 751" xmlns="http://www.w3.org/2000/svg">
 <path d="m557.24 430.7v-110.48l89.766-51.835v110.48zm-467.48-270.03v110.48l89.766 51.835v-110.48zm467.48 49.81-89.766-51.835v110.48l89.766 51.835zm-467.48 170.41v110.48l89.766 51.835v-110.48zm467.48 49.81-89.766-51.835v110.48l89.766 51.835zm-377.71-321.24v110.48l89.766 51.835v-110.48zm287.95 49.81-89.766-51.835v110.48l89.766 51.835zm-287.95 170.41v110.48l89.766 51.835v-110.48zm287.95 49.81-89.766-51.835v110.48l89.766 51.835zm-198.18-321.24v110.48l89.766 51.835v-110.48zm108.42 49.81-89.766-51.835v110.48l89.766 51.835zm-108.42 170.41v110.48l89.766 51.835v-110.48zm108.42 49.81-89.766-51.835v110.48l89.766 51.835z" fill="#fff"/>
</svg> 