<?xml version="1.0" encoding="UTF-8"?>
<svg width="256" height="256" viewBox="0 0 256 256" xmlns="http://www.w3.org/2000/svg">
  <path fill="#fff" d="M128 0C57.308 0 0 57.308 0 128s57.308 128 128 128 128-57.308 128-128S198.692 0 128 0zm0 25.6c56.554 0 102.4 45.846 102.4 102.4 0 56.554-45.846 102.4-102.4 102.4-56.554 0-102.4-45.846-102.4-102.4C25.6 71.446 71.446 25.6 128 25.6zm0 25.6c-42.415 0-76.8 34.385-76.8 76.8s34.385 76.8 76.8 76.8 76.8-34.385 76.8-76.8-34.385-76.8-76.8-76.8zm0 25.6c28.277 0 51.2 22.923 51.2 51.2s-22.923 51.2-51.2 51.2-51.2-22.923-51.2-51.2 22.923-51.2 51.2-51.2z"/>
</svg> 