<?xml version="1.0" encoding="UTF-8"?><svg id="b" xmlns="http://www.w3.org/2000/svg" width="300" height="70.97" viewBox="0 0 300 70.97"><defs><style>.j{fill:#83bbff;}</style></defs><g id="c"><path id="d" class="j" d="m0,11.71C0,5.24,5.4,0,12.06,0s12.06,5.24,12.06,11.71v47.55c0,6.47-5.4,11.71-12.06,11.71S0,65.72,0,59.26V11.71Z"/><path id="e" class="j" d="m106.92,59.65c0,6.25-5.21,11.31-11.65,11.31s-11.65-5.06-11.65-11.31v-25.28c0-6.48-5.42-11.75-12.09-11.75s-12.1,5.27-12.1,11.75v25.28c0,6.25-5.21,11.31-11.65,11.31s-11.65-5.06-11.65-11.31v-25.28C36.15,15.39,51.99,0,71.54,0s35.39,15.39,35.39,34.37v25.28h0Z"/><path id="f" class="j" d="m116.45,12.91c0-6.42,5.36-11.63,11.97-11.63h44.11c6.61,0,11.97,5.2,11.97,11.63,0,8.96-11.58,16.42-26.78,21.07-1.04.32-2-.7-1.56-1.67l2.17-4.78c.64-1.41-.42-2.99-2-2.99h-27.91c-6.61,0-11.97-5.21-11.97-11.63Z"/><path id="g" class="j" d="m184.5,58.06c0,6.42-5.36,11.63-11.97,11.63h-44.11c-6.61,0-11.97-5.2-11.97-11.63,0-8.96,11.58-16.42,26.78-21.07,1.04-.32,2,.7,1.56,1.67l-2.17,4.78c-.64,1.41.42,2.99,2,2.99h27.91c6.61,0,11.97,5.21,11.97,11.63Z"/><path id="h" class="j" d="m228.72,0c-20.17,0-36.53,15.88-36.53,35.48s16.35,35.48,36.53,35.48,36.53-15.88,36.53-35.48S248.9,0,228.72,0Zm0,48.34c-7.31,0-13.24-5.76-13.24-12.86s5.92-12.86,13.24-12.86,13.24,5.76,13.24,12.86-5.92,12.86-13.24,12.86Z"/><path id="i" class="j" d="m275.89,11.71C275.89,5.24,281.28,0,287.94,0s12.06,5.24,12.06,11.71v47.55c0,6.47-5.4,11.71-12.06,11.71s-12.06-5.24-12.06-11.71V11.71Z"/></g></svg>