<?xml version="1.0" encoding="UTF-8"?>
<svg width="256" height="256" viewBox="0 0 256 256" xmlns="http://www.w3.org/2000/svg">
  <path fill="#fff" d="M127.779 0C60.42 0 5.24 52.412 0 119.014l68.724 28.674a35.812 35.812 0 0 1 20.426-6.366c.682 0 1.356.019 2.02.056l30.566-44.71v-.626c0-26.903 21.69-48.796 48.353-48.796 26.662 0 48.352 21.893 48.352 48.796 0 26.902-21.69 48.804-48.352 48.804-.37 0-.73-.009-1.098-.018l-43.593 31.377c.028.582.046 1.163.046 1.735 0 20.204-16.283 36.636-36.294 36.636-17.566 0-32.263-12.359-35.943-29.025L4.782 161.632c18.496 54.937 70.08 94.368 122.997 94.368 76.683 0 138.86-62.678 138.86-140C266.639 62.678 204.462 0 127.779 0zM80.578 196.663l-15.621-6.52c2.761 5.8 7.986 10.669 15.151 12.779 15.611 4.599 32.091-4.436 36.642-20.21 2.211-7.658 1.509-15.777-1.965-22.922-3.456-7.145-9.414-12.499-16.796-15.086-7.347-2.545-15.143-2.369-21.941-.210l16.15 6.748c11.516 3.395 18.158 15.834 14.787 27.65-3.37 11.816-15.581 18.651-27.047 15.247l.64 2.524zm143.555-94.214c0-17.925-14.457-32.52-32.213-32.52-17.755 0-32.213 14.595-32.213 32.52 0 17.926 14.458 32.52 32.213 32.52 17.756 0 32.213-14.594 32.213-32.52zm-56.97-.055c0-13.774 11.097-24.964 24.757-24.964 13.661 0 24.757 11.19 24.757 24.964 0 13.775-11.096 24.964-24.757 24.964-13.66 0-24.757-11.189-24.757-24.964z"/>
</svg> 