<?xml version="1.0" encoding="UTF-8"?>
<svg width="512" height="512" viewBox="0 0 512 512" fill="none" xmlns="http://www.w3.org/2000/svg">
  <path d="M102.4 179.2L153.6 256L102.4 332.8H51.2L102.4 256L51.2 179.2H102.4Z" fill="white"/>
  <path d="M153.6 179.2L204.8 256L153.6 332.8H102.4L153.6 256L102.4 179.2H153.6Z" fill="white"/>
  <path d="M256 179.2C282.829 179.2 307.2 203.571 307.2 230.4V281.6C307.2 308.429 282.829 332.8 256 332.8C229.171 332.8 204.8 308.429 204.8 281.6V230.4C204.8 203.571 229.171 179.2 256 179.2Z" fill="white"/>
  <path d="M409.6 179.2V332.8H358.4V179.2H409.6Z" fill="white"/>
  <path d="M460.8 179.2V332.8H409.6V179.2H460.8Z" fill="white"/>
</svg> 