<?xml version="1.0" encoding="UTF-8"?>
<svg width="512" height="512" viewBox="0 0 512 512" fill="none" xmlns="http://www.w3.org/2000/svg">
  <path d="M255.71 102.4C365.714 102.4 435.2 179.2 435.2 256C435.2 332.8 365.714 409.6 255.71 409.6C145.707 409.6 76.8 332.8 76.8 256C76.8 179.2 145.707 102.4 255.71 102.4ZM255.71 153.6C197.486 153.6 153.6 197.486 153.6 256C153.6 314.514 197.486 358.4 255.71 358.4C313.935 358.4 358.4 314.514 358.4 256C358.4 197.486 313.935 153.6 255.71 153.6Z" fill="white"/>
  <path d="M307.2 256C307.2 284.8 284.8 307.2 256 307.2C227.2 307.2 204.8 284.8 204.8 256C204.8 227.2 227.2 204.8 256 204.8C284.8 204.8 307.2 227.2 307.2 256Z" fill="white"/>
</svg> 