<?xml version="1.0" encoding="UTF-8"?>
<svg width="512" height="512" viewBox="0 0 512 512" fill="none" xmlns="http://www.w3.org/2000/svg">
  <path d="M475.84 220.16C475.84 203.52 462.08 192 445.44 192H364.16C351.36 192 340.48 203.52 340.48 216.32V297.6C340.48 310.4 351.36 320 364.16 320H445.44C462.08 320 475.84 308.48 475.84 291.84V220.16Z" fill="white"/>
  <path d="M308.48 220.16C308.48 203.52 294.72 192 278.08 192H196.8C184 192 173.12 203.52 173.12 216.32V297.6C173.12 310.4 184 320 196.8 320H278.08C294.72 320 308.48 308.48 308.48 291.84V220.16Z" fill="white"/>
  <path d="M141.12 220.16C141.12 203.52 127.36 192 110.72 192H66.56C53.76 192 42.88 203.52 42.88 216.32V297.6C42.88 310.4 53.76 320 66.56 320H110.72C127.36 320 141.12 308.48 141.12 291.84V220.16Z" fill="white"/>
</svg> 